name C:\Users\u0101727\Documents\MyRepositories\upper-imu-dc\Results\main_tracking\Case_15\kinematics.mot
datacolumns 10
datarows 33
range 3.00000000 3.32000000
endheader 
time	clav_prot	clav_elev	scapula_abduction	scapula_elevation	scapula_upward_rot	scapula_winging	plane_elv	shoulder_elv	axial_rot	
          3.00000000	        -17.07944345	         -3.35510906	         -5.07637333	         -2.12402317	          9.72599412	          5.31456741	        -17.19829429	         15.85435333	         34.25411205	
          3.01000000	        -17.20975940	         -3.42157907	         -5.20544369	         -2.15173581	          9.66517457	          5.35554164	        -17.12663698	         15.87450033	         34.04440373	
          3.02000000	        -17.25460566	         -3.47066358	         -5.31183717	         -2.17149288	          9.59255926	          5.39579378	        -17.03617059	         15.91089977	         33.85180782	
          3.03000000	        -17.29386322	         -3.52534302	         -5.41503476	         -2.19109505	          9.50498918	          5.44021382	        -16.92316243	         15.96858421	         33.66654534	
          3.04000000	        -17.32671235	         -3.58464513	         -5.51381441	         -2.20973436	          9.40243747	          5.48842531	        -16.78340805	         16.04974445	         33.48422876	
          3.05000000	        -17.35403607	         -3.64705596	         -5.60789491	         -2.22740776	          9.28893453	          5.53918587	        -16.62104838	         16.15370527	         33.29223199	
          3.06000000	        -17.37629779	         -3.71071106	         -5.69621558	         -2.24389461	          9.16876511	          5.59100772	        -16.44110256	         16.27964596	         33.07959504	
          3.07000000	        -17.39467305	         -3.77375378	         -5.77853237	         -2.25925738	          9.04705692	          5.64232055	        -16.25019149	         16.42602345	         32.83536549	
          3.08000000	        -17.41071116	         -3.83449078	         -5.85523280	         -2.27371376	          8.92895355	          5.69166188	        -16.05499135	         16.59105705	         32.55078833	
          3.09000000	        -17.42615878	         -3.89148372	         -5.92728210	         -2.28755096	          8.81909078	          5.73780387	        -15.86117822	         16.77298934	         32.22041292	
          3.10000000	        -17.44288909	         -3.94360130	         -5.99620976	         -2.30109265	          8.72135387	          5.77981629	        -15.67298778	         16.97016839	         31.84251745	
          3.11000000	        -17.46260281	         -3.99004319	         -6.06374007	         -2.31460977	          8.63855721	          5.81709602	        -15.49291629	         17.18128869	         31.41934334	
          3.12000000	        -17.48662250	         -4.03037930	         -6.13145965	         -2.32831292	          8.57235484	          5.84935801	        -15.32204921	         17.40556236	         30.95643329	
          3.13000000	        -17.51578855	         -4.06458080	         -6.20054715	         -2.34240852	          8.52337881	          5.87658575	        -15.16088909	         17.64278164	         30.46124988	
          3.14000000	        -17.55038322	         -4.09300104	         -6.27150448	         -2.35715187	          8.49149626	          5.89894516	        -15.01032297	         17.89328877	         29.94153773	
          3.15000000	        -17.59010037	         -4.11629044	         -6.34395078	         -2.37287158	          8.47613499	          5.91667472	        -14.87246968	         18.15782840	         29.40376548	
          3.16000000	        -17.63405049	         -4.13525471	         -6.41650891	         -2.38994388	          8.47658024	          5.92997696	        -14.75113879	         18.43732405	         28.85204399	
          3.17000000	        -17.68078715	         -4.15068659	         -6.48680303	         -2.40871216	          8.49214600	          5.93894052	        -14.65171768	         18.73265156	         28.28782040	
          3.18000000	        -17.72841063	         -4.16321283	         -6.55165199	         -2.42938798	          8.52222576	          5.94351197	        -14.58053350	         19.04442659	         27.71032453	
          3.19000000	        -17.77481821	         -4.17319540	         -6.60753620	         -2.45198643	          8.56628904	          5.94352168	        -14.54389926	         19.37279421	         27.11752233	
          3.20000000	        -17.81809610	         -4.18071265	         -6.65130234	         -2.47632664	          8.62386239	          5.93875753	        -14.54707093	         19.71724419	         26.50731647	
          3.21000000	        -17.85695993	         -4.18562285	         -6.68094407	         -2.50209291	          8.69448917	          5.92907038	        -14.59330514	         20.07651046	         25.87877553	
          3.22000000	        -17.89110888	         -4.18768421	         -6.69623558	         -2.52892570	          8.77765484	          5.91448437	        -14.68317894	         20.44859908	         25.23317878	
          3.23000000	        -17.92138071	         -4.18668937	         -6.69902529	         -2.55650637	          8.87268699	          5.89528061	        -14.81430260	         20.83094627	         24.57466405	
          3.24000000	        -17.94967221	         -4.18258257	         -6.69311640	         -2.58461947	          8.97866631	          5.87203224	        -14.98149713	         21.22067251	         23.91031617	
          3.25000000	        -17.97867673	         -4.17554783	         -6.68380363	         -2.61319906	          9.09439468	          5.84558579	        -15.17740813	         21.61488106	         23.24965530	
          3.26000000	        -18.01152819	         -4.16605733	         -6.67720990	         -2.64236322	          9.21844850	          5.81699372	        -15.39340304	         22.01094145	         22.60365735	
          3.27000000	        -18.05142128	         -4.15485146	         -6.67955501	         -2.67241632	          9.34930997	          5.78740360	        -15.62051139	         22.40669843	         21.98357803	
          3.28000000	        -18.10125323	         -4.14282641	         -6.69645748	         -2.70379377	          9.48554594	          5.75791310	        -15.85019217	         22.80056349	         21.39985825	
          3.29000000	        -18.16333749	         -4.13084686	         -6.73236705	         -2.73695839	          9.62600800	          5.72941233	        -16.07485025	         23.19148265	         20.86124903	
          3.30000000	        -18.23923999	         -4.11954409	         -6.79021068	         -2.77229337	          9.77003981	          5.70244397	        -16.28816505	         23.57881244	         20.37413744	
          3.31000000	        -18.32975201	         -4.10915658	         -6.87127310	         -2.81003108	          9.91767266	          5.67710506	        -16.48532704	         23.96215315	         19.94201646	
          3.32000000	        -18.43496059	         -4.09943073	         -6.97525855	         -2.85021973	         10.06977447	          5.65299715	        -16.66321133	         24.34117993	         19.56511095	
